<?xml version="1.0" encoding="UTF-8" standalone="no" ?>
<!DOCTYPE svg PUBLIC "-//W3C//DTD SVG 1.1//EN" "http://www.w3.org/Graphics/SVG/1.1/DTD/svg11.dtd">
<svg xmlns="http://www.w3.org/2000/svg" xmlns:xlink="http://www.w3.org/1999/xlink" version="1.1" width="1080" height="1080" viewBox="0 0 1080 1080" xml:space="preserve">
<desc>Created with Fabric.js 5.2.4</desc>
<defs>
</defs>
<g transform="matrix(1 0 0 1 540 540)" id="6b2179fa-31e8-4ec5-a5c5-57da7d0835b7"  >
<rect style="stroke: none; stroke-width: 1; stroke-dasharray: none; stroke-linecap: butt; stroke-dashoffset: 0; stroke-linejoin: miter; stroke-miterlimit: 4; fill: rgb(255,255,255); fill-rule: nonzero; opacity: 1; visibility: hidden;" vector-effect="non-scaling-stroke"  x="-540" y="-540" rx="0" ry="0" width="1080" height="1080" />
</g>
<g transform="matrix(1 0 0 1 540 540)" id="da5eb0cf-1f7d-4fdc-aa51-ca79b7803ee1"  >
</g>
<g transform="matrix(2.19 0 0 1.85 542.44 536.66)" id="800a9901-c16d-4b3b-8af0-f0be25051d7b"  >
<circle style="stroke: rgb(0,0,0); stroke-width: 0; stroke-dasharray: none; stroke-linecap: butt; stroke-dashoffset: 0; stroke-linejoin: miter; stroke-miterlimit: 4; fill: rgb(0,0,0); fill-rule: nonzero; opacity: 1;" vector-effect="non-scaling-stroke"  cx="0" cy="0" r="35" />
</g>
<g transform="matrix(NaN NaN NaN NaN 0 0)"  >
<g style=""   >
</g>
</g>
<g transform="matrix(1 0 0 1 540 540)" id="fde26209-70be-4a18-a9c6-6ee241c0a7cf"  >
<path style="stroke: rgb(0,0,0); stroke-width: 0; stroke-dasharray: none; stroke-linecap: butt; stroke-dashoffset: 0; stroke-linejoin: miter; stroke-miterlimit: 4; fill: rgb(255,255,255); fill-rule: nonzero; opacity: 1;" vector-effect="non-scaling-stroke"  transform=" translate(-100, -100)" d="M 100 16.09 C 53.657786641698124 16.09 16.090000000000003 53.657786641698124 16.090000000000003 100 C 16.090000000000003 146.34221335830188 53.65778664169813 183.91 100 183.91 C 146.34221335830188 183.91 183.91 146.34221335830188 183.91 100 C 183.91265273604196 77.74487121304387 175.07301213079913 56.40049305565927 159.33625953756993 40.66374046243006 C 143.5995069443407 24.926987869200858 122.25512878695612 16.087347263958037 99.99999999999999 16.090000000000003 Z M 69.82 137.91 L 54 137.91 L 54 69.38 L 69.82 69.38 Z M 148.89999999999998 76.21 L 148.89999999999998 137.91 L 135.89999999999998 137.91 L 102.55 97.34 L 102.55 97.34 L 101.75999999999999 96.34 L 101.75999999999999 137.93 L 86.06 137.93 L 86.06 69.38 L 99.17 69.38 L 133.24 111 L 133.24 76.1 C 127.53287324759859 78.51592002274582 121.43319859710306 79.8714032784115 115.24000000000001 80.1 C 126.07000000000001 72.02 135.53 61.55 140.84 48.849999999999994 C 145.91 61.55 155.93 71.57 166.43 80.1 C 160.41935594373018 79.72689859848415 154.5042883291443 78.41431371424349 148.9 76.21000000000001 Z" stroke-linecap="round" />
</g>
</svg>
