<svg id="Layer_1" data-name="Layer 1" xmlns="http://www.w3.org/2000/svg" viewBox="0 0 200 200">
<defs>
  <style>.cls-1{fill:#ffffff;}</style>
</defs>
 <circle
    cx="100"
    cy="100"
    r="70"
    fill="#000000" />
<path class="cls-1" d="M100,16.09A83.91,83.91,0,1,0,183.91,100,83.9,83.9,0,0,0,100,16.09ZM69.82,137.91H54V69.38H69.82Zm79.08-61.7v61.7h-13L102.55,97.34l0,0-.79-1v41.59H86.06V69.38H99.17L133.24,111V76.1a51,51,0,0,1-18,4c10.83-8.08,20.29-18.55,25.6-31.25,5.07,12.7,15.09,22.72,25.59,31.25A57.65,57.65,0,0,1,148.9,76.21Z"/>
</svg>
